<mxfile host="app.diagrams.net" modified="2020-11-12T20:10:53.482Z" agent="5.0 (Windows NT 10.0; Win64; x64) AppleWebKit/537.36 (KHTML, like Gecko) Chrome/86.0.4240.183 Safari/537.36 Edg/86.0.622.63" etag="e2imjAUJXHq6yA36XgW-" version="13.8.6" type="github">
  <diagram id="SCuiM9Ef9zFS880fD7g7" name="Page-1">
    <mxGraphModel dx="2150" dy="590" grid="0" gridSize="10" guides="1" tooltips="1" connect="1" arrows="1" fold="1" page="1" pageScale="1" pageWidth="850" pageHeight="1100" math="0" shadow="0">
      <root>
        <mxCell id="0" />
        <mxCell id="1" parent="0" />
        <mxCell id="ythB0XY5r4S939yMG-qN-1" value="" style="rounded=0;whiteSpace=wrap;html=1;" vertex="1" parent="1">
          <mxGeometry x="80" y="40" width="120" height="60" as="geometry" />
        </mxCell>
        <mxCell id="ythB0XY5r4S939yMG-qN-2" value="" style="rounded=0;whiteSpace=wrap;html=1;" vertex="1" parent="1">
          <mxGeometry x="200" y="40" width="120" height="60" as="geometry" />
        </mxCell>
        <mxCell id="ythB0XY5r4S939yMG-qN-3" value="" style="rounded=0;whiteSpace=wrap;html=1;" vertex="1" parent="1">
          <mxGeometry x="320" y="40" width="120" height="60" as="geometry" />
        </mxCell>
        <mxCell id="ythB0XY5r4S939yMG-qN-4" value="" style="rounded=0;whiteSpace=wrap;html=1;" vertex="1" parent="1">
          <mxGeometry x="440" y="40" width="120" height="60" as="geometry" />
        </mxCell>
        <mxCell id="ythB0XY5r4S939yMG-qN-5" value="" style="rounded=0;whiteSpace=wrap;html=1;" vertex="1" parent="1">
          <mxGeometry x="560" y="40" width="120" height="60" as="geometry" />
        </mxCell>
        <mxCell id="ythB0XY5r4S939yMG-qN-6" value="" style="rounded=0;whiteSpace=wrap;html=1;" vertex="1" parent="1">
          <mxGeometry x="680" y="40" width="120" height="60" as="geometry" />
        </mxCell>
        <mxCell id="ythB0XY5r4S939yMG-qN-7" value="" style="rounded=0;whiteSpace=wrap;html=1;" vertex="1" parent="1">
          <mxGeometry x="800" y="40" width="120" height="60" as="geometry" />
        </mxCell>
        <mxCell id="ythB0XY5r4S939yMG-qN-8" value="" style="rounded=0;whiteSpace=wrap;html=1;" vertex="1" parent="1">
          <mxGeometry x="920" y="40" width="120" height="60" as="geometry" />
        </mxCell>
        <mxCell id="ythB0XY5r4S939yMG-qN-9" value="" style="rounded=0;whiteSpace=wrap;html=1;" vertex="1" parent="1">
          <mxGeometry x="1040" y="40" width="120" height="60" as="geometry" />
        </mxCell>
        <mxCell id="ythB0XY5r4S939yMG-qN-10" value="" style="rounded=0;whiteSpace=wrap;html=1;" vertex="1" parent="1">
          <mxGeometry x="1160" y="40" width="120" height="60" as="geometry" />
        </mxCell>
        <mxCell id="ythB0XY5r4S939yMG-qN-11" value="" style="rounded=0;whiteSpace=wrap;html=1;" vertex="1" parent="1">
          <mxGeometry x="1280" y="40" width="120" height="60" as="geometry" />
        </mxCell>
        <mxCell id="ythB0XY5r4S939yMG-qN-12" value="" style="rounded=0;whiteSpace=wrap;html=1;" vertex="1" parent="1">
          <mxGeometry x="1400" y="40" width="120" height="60" as="geometry" />
        </mxCell>
        <mxCell id="ythB0XY5r4S939yMG-qN-176" style="edgeStyle=orthogonalEdgeStyle;rounded=0;orthogonalLoop=1;jettySize=auto;html=1;entryX=0.25;entryY=1;entryDx=0;entryDy=0;" edge="1" parent="1" source="ythB0XY5r4S939yMG-qN-13" target="ythB0XY5r4S939yMG-qN-4">
          <mxGeometry relative="1" as="geometry">
            <Array as="points">
              <mxPoint x="140" y="149" />
              <mxPoint x="470" y="149" />
            </Array>
          </mxGeometry>
        </mxCell>
        <mxCell id="ythB0XY5r4S939yMG-qN-13" value="" style="rounded=0;whiteSpace=wrap;html=1;" vertex="1" parent="1">
          <mxGeometry x="80" y="200" width="120" height="60" as="geometry" />
        </mxCell>
        <mxCell id="ythB0XY5r4S939yMG-qN-14" value="" style="rounded=0;whiteSpace=wrap;html=1;" vertex="1" parent="1">
          <mxGeometry x="200" y="200" width="120" height="60" as="geometry" />
        </mxCell>
        <mxCell id="ythB0XY5r4S939yMG-qN-15" value="" style="rounded=0;whiteSpace=wrap;html=1;" vertex="1" parent="1">
          <mxGeometry x="320" y="200" width="120" height="60" as="geometry" />
        </mxCell>
        <mxCell id="ythB0XY5r4S939yMG-qN-16" value="" style="rounded=0;whiteSpace=wrap;html=1;" vertex="1" parent="1">
          <mxGeometry x="440" y="200" width="120" height="60" as="geometry" />
        </mxCell>
        <mxCell id="ythB0XY5r4S939yMG-qN-17" value="" style="rounded=0;whiteSpace=wrap;html=1;" vertex="1" parent="1">
          <mxGeometry x="560" y="200" width="120" height="60" as="geometry" />
        </mxCell>
        <mxCell id="ythB0XY5r4S939yMG-qN-177" style="edgeStyle=orthogonalEdgeStyle;rounded=0;orthogonalLoop=1;jettySize=auto;html=1;entryX=0.25;entryY=0;entryDx=0;entryDy=0;" edge="1" parent="1" source="ythB0XY5r4S939yMG-qN-18" target="ythB0XY5r4S939yMG-qN-31">
          <mxGeometry relative="1" as="geometry" />
        </mxCell>
        <mxCell id="ythB0XY5r4S939yMG-qN-18" value="" style="rounded=0;whiteSpace=wrap;html=1;" vertex="1" parent="1">
          <mxGeometry x="680" y="200" width="120" height="60" as="geometry" />
        </mxCell>
        <mxCell id="ythB0XY5r4S939yMG-qN-175" style="edgeStyle=orthogonalEdgeStyle;rounded=0;orthogonalLoop=1;jettySize=auto;html=1;entryX=0.75;entryY=1;entryDx=0;entryDy=0;" edge="1" parent="1" source="ythB0XY5r4S939yMG-qN-19" target="ythB0XY5r4S939yMG-qN-4">
          <mxGeometry relative="1" as="geometry">
            <Array as="points">
              <mxPoint x="980" y="146" />
              <mxPoint x="530" y="146" />
            </Array>
          </mxGeometry>
        </mxCell>
        <mxCell id="ythB0XY5r4S939yMG-qN-19" value="" style="rounded=0;whiteSpace=wrap;html=1;" vertex="1" parent="1">
          <mxGeometry x="920" y="200" width="120" height="60" as="geometry" />
        </mxCell>
        <mxCell id="ythB0XY5r4S939yMG-qN-20" value="" style="rounded=0;whiteSpace=wrap;html=1;" vertex="1" parent="1">
          <mxGeometry x="1040" y="200" width="120" height="60" as="geometry" />
        </mxCell>
        <mxCell id="ythB0XY5r4S939yMG-qN-193" style="edgeStyle=orthogonalEdgeStyle;rounded=0;orthogonalLoop=1;jettySize=auto;html=1;entryX=0.5;entryY=0;entryDx=0;entryDy=0;" edge="1" parent="1" source="ythB0XY5r4S939yMG-qN-21" target="ythB0XY5r4S939yMG-qN-44">
          <mxGeometry relative="1" as="geometry">
            <Array as="points">
              <mxPoint x="1220" y="317" />
              <mxPoint x="1492" y="317" />
              <mxPoint x="1492" y="791" />
              <mxPoint x="700" y="791" />
            </Array>
          </mxGeometry>
        </mxCell>
        <mxCell id="ythB0XY5r4S939yMG-qN-21" value="" style="rounded=0;whiteSpace=wrap;html=1;" vertex="1" parent="1">
          <mxGeometry x="1160" y="200" width="120" height="60" as="geometry" />
        </mxCell>
        <mxCell id="ythB0XY5r4S939yMG-qN-195" style="edgeStyle=orthogonalEdgeStyle;rounded=0;orthogonalLoop=1;jettySize=auto;html=1;entryX=0.75;entryY=0;entryDx=0;entryDy=0;" edge="1" parent="1" source="ythB0XY5r4S939yMG-qN-22" target="ythB0XY5r4S939yMG-qN-44">
          <mxGeometry relative="1" as="geometry">
            <Array as="points">
              <mxPoint x="1340" y="286" />
              <mxPoint x="1527" y="286" />
              <mxPoint x="1527" y="811" />
              <mxPoint x="730" y="811" />
            </Array>
          </mxGeometry>
        </mxCell>
        <mxCell id="ythB0XY5r4S939yMG-qN-22" value="" style="rounded=0;whiteSpace=wrap;html=1;" vertex="1" parent="1">
          <mxGeometry x="1280" y="200" width="120" height="60" as="geometry" />
        </mxCell>
        <mxCell id="ythB0XY5r4S939yMG-qN-180" style="edgeStyle=orthogonalEdgeStyle;rounded=0;orthogonalLoop=1;jettySize=auto;html=1;entryX=0.75;entryY=0;entryDx=0;entryDy=0;" edge="1" parent="1" source="ythB0XY5r4S939yMG-qN-23" target="ythB0XY5r4S939yMG-qN-31">
          <mxGeometry relative="1" as="geometry" />
        </mxCell>
        <mxCell id="ythB0XY5r4S939yMG-qN-23" value="&lt;span&gt;Ins_Researcher_ID&lt;/span&gt;" style="rounded=0;whiteSpace=wrap;html=1;" vertex="1" parent="1">
          <mxGeometry x="920" y="360" width="120" height="60" as="geometry" />
        </mxCell>
        <mxCell id="ythB0XY5r4S939yMG-qN-183" style="edgeStyle=orthogonalEdgeStyle;rounded=0;orthogonalLoop=1;jettySize=auto;html=1;entryX=0.65;entryY=0.988;entryDx=0;entryDy=0;entryPerimeter=0;" edge="1" parent="1" source="ythB0XY5r4S939yMG-qN-24" target="ythB0XY5r4S939yMG-qN-19">
          <mxGeometry relative="1" as="geometry" />
        </mxCell>
        <mxCell id="ythB0XY5r4S939yMG-qN-24" value="" style="rounded=0;whiteSpace=wrap;html=1;" vertex="1" parent="1">
          <mxGeometry x="1040" y="360" width="120" height="60" as="geometry" />
        </mxCell>
        <mxCell id="ythB0XY5r4S939yMG-qN-25" value="" style="rounded=0;whiteSpace=wrap;html=1;" vertex="1" parent="1">
          <mxGeometry x="1160" y="360" width="120" height="60" as="geometry" />
        </mxCell>
        <mxCell id="ythB0XY5r4S939yMG-qN-26" value="" style="rounded=0;whiteSpace=wrap;html=1;" vertex="1" parent="1">
          <mxGeometry x="1280" y="360" width="120" height="60" as="geometry" />
        </mxCell>
        <mxCell id="ythB0XY5r4S939yMG-qN-188" style="edgeStyle=orthogonalEdgeStyle;rounded=0;orthogonalLoop=1;jettySize=auto;html=1;entryX=0.5;entryY=1;entryDx=0;entryDy=0;" edge="1" parent="1" source="ythB0XY5r4S939yMG-qN-27" target="ythB0XY5r4S939yMG-qN-23">
          <mxGeometry relative="1" as="geometry" />
        </mxCell>
        <mxCell id="ythB0XY5r4S939yMG-qN-27" value="" style="rounded=0;whiteSpace=wrap;html=1;" vertex="1" parent="1">
          <mxGeometry x="920" y="520" width="120" height="60" as="geometry" />
        </mxCell>
        <mxCell id="ythB0XY5r4S939yMG-qN-28" value="" style="rounded=0;whiteSpace=wrap;html=1;" vertex="1" parent="1">
          <mxGeometry x="1040" y="520" width="120" height="60" as="geometry" />
        </mxCell>
        <mxCell id="ythB0XY5r4S939yMG-qN-29" value="" style="rounded=0;whiteSpace=wrap;html=1;" vertex="1" parent="1">
          <mxGeometry x="1160" y="520" width="120" height="60" as="geometry" />
        </mxCell>
        <mxCell id="ythB0XY5r4S939yMG-qN-30" value="" style="rounded=0;whiteSpace=wrap;html=1;" vertex="1" parent="1">
          <mxGeometry x="1280" y="520" width="120" height="60" as="geometry" />
        </mxCell>
        <mxCell id="ythB0XY5r4S939yMG-qN-31" value="" style="rounded=0;whiteSpace=wrap;html=1;" vertex="1" parent="1">
          <mxGeometry x="600" y="440" width="120" height="60" as="geometry" />
        </mxCell>
        <mxCell id="ythB0XY5r4S939yMG-qN-190" style="edgeStyle=orthogonalEdgeStyle;rounded=0;orthogonalLoop=1;jettySize=auto;html=1;entryX=0.5;entryY=1;entryDx=0;entryDy=0;" edge="1" parent="1" source="ythB0XY5r4S939yMG-qN-32" target="ythB0XY5r4S939yMG-qN-38">
          <mxGeometry relative="1" as="geometry">
            <Array as="points">
              <mxPoint x="700" y="760" />
              <mxPoint x="170" y="760" />
            </Array>
          </mxGeometry>
        </mxCell>
        <mxCell id="ythB0XY5r4S939yMG-qN-32" value="" style="rounded=0;whiteSpace=wrap;html=1;" vertex="1" parent="1">
          <mxGeometry x="640" y="680" width="120" height="60" as="geometry" />
        </mxCell>
        <mxCell id="ythB0XY5r4S939yMG-qN-189" style="edgeStyle=orthogonalEdgeStyle;rounded=0;orthogonalLoop=1;jettySize=auto;html=1;entryX=0.75;entryY=1;entryDx=0;entryDy=0;" edge="1" parent="1" source="ythB0XY5r4S939yMG-qN-33" target="ythB0XY5r4S939yMG-qN-31">
          <mxGeometry relative="1" as="geometry">
            <Array as="points">
              <mxPoint x="820" y="530" />
              <mxPoint x="690" y="530" />
            </Array>
          </mxGeometry>
        </mxCell>
        <mxCell id="ythB0XY5r4S939yMG-qN-33" value="" style="rounded=0;whiteSpace=wrap;html=1;" vertex="1" parent="1">
          <mxGeometry x="760" y="680" width="120" height="60" as="geometry" />
        </mxCell>
        <mxCell id="ythB0XY5r4S939yMG-qN-34" value="" style="rounded=0;whiteSpace=wrap;html=1;" vertex="1" parent="1">
          <mxGeometry x="880" y="680" width="120" height="60" as="geometry" />
        </mxCell>
        <mxCell id="ythB0XY5r4S939yMG-qN-35" value="" style="rounded=0;whiteSpace=wrap;html=1;" vertex="1" parent="1">
          <mxGeometry x="1000" y="680" width="120" height="60" as="geometry" />
        </mxCell>
        <mxCell id="ythB0XY5r4S939yMG-qN-36" value="" style="rounded=0;whiteSpace=wrap;html=1;" vertex="1" parent="1">
          <mxGeometry x="1120" y="680" width="120" height="60" as="geometry" />
        </mxCell>
        <mxCell id="ythB0XY5r4S939yMG-qN-191" style="edgeStyle=orthogonalEdgeStyle;rounded=0;orthogonalLoop=1;jettySize=auto;html=1;entryX=0.25;entryY=1;entryDx=0;entryDy=0;" edge="1" parent="1" source="ythB0XY5r4S939yMG-qN-37" target="ythB0XY5r4S939yMG-qN-13">
          <mxGeometry relative="1" as="geometry" />
        </mxCell>
        <mxCell id="ythB0XY5r4S939yMG-qN-37" value="" style="rounded=0;whiteSpace=wrap;html=1;" vertex="1" parent="1">
          <mxGeometry x="-10" y="680" width="120" height="60" as="geometry" />
        </mxCell>
        <mxCell id="ythB0XY5r4S939yMG-qN-38" value="" style="rounded=0;whiteSpace=wrap;html=1;" vertex="1" parent="1">
          <mxGeometry x="110" y="680" width="120" height="60" as="geometry" />
        </mxCell>
        <mxCell id="ythB0XY5r4S939yMG-qN-39" value="" style="rounded=0;whiteSpace=wrap;html=1;" vertex="1" parent="1">
          <mxGeometry x="230" y="680" width="120" height="60" as="geometry" />
        </mxCell>
        <mxCell id="ythB0XY5r4S939yMG-qN-40" value="" style="rounded=0;whiteSpace=wrap;html=1;" vertex="1" parent="1">
          <mxGeometry x="350" y="680" width="120" height="60" as="geometry" />
        </mxCell>
        <mxCell id="ythB0XY5r4S939yMG-qN-41" value="" style="rounded=0;whiteSpace=wrap;html=1;" vertex="1" parent="1">
          <mxGeometry x="470" y="680" width="120" height="60" as="geometry" />
        </mxCell>
        <mxCell id="ythB0XY5r4S939yMG-qN-187" style="edgeStyle=orthogonalEdgeStyle;rounded=0;orthogonalLoop=1;jettySize=auto;html=1;entryX=0.658;entryY=0.014;entryDx=0;entryDy=0;entryPerimeter=0;" edge="1" parent="1" source="ythB0XY5r4S939yMG-qN-42" target="ythB0XY5r4S939yMG-qN-23">
          <mxGeometry relative="1" as="geometry">
            <Array as="points">
              <mxPoint x="300" y="302" />
              <mxPoint x="640" y="302" />
              <mxPoint x="640" y="322" />
              <mxPoint x="999" y="322" />
            </Array>
          </mxGeometry>
        </mxCell>
        <mxCell id="ythB0XY5r4S939yMG-qN-42" value="" style="rounded=0;whiteSpace=wrap;html=1;" vertex="1" parent="1">
          <mxGeometry x="240" y="517" width="120" height="60" as="geometry" />
        </mxCell>
        <mxCell id="ythB0XY5r4S939yMG-qN-186" style="edgeStyle=orthogonalEdgeStyle;rounded=0;orthogonalLoop=1;jettySize=auto;html=1;entryX=0.5;entryY=1;entryDx=0;entryDy=0;" edge="1" parent="1" source="ythB0XY5r4S939yMG-qN-43" target="ythB0XY5r4S939yMG-qN-13">
          <mxGeometry relative="1" as="geometry" />
        </mxCell>
        <mxCell id="ythB0XY5r4S939yMG-qN-43" value="" style="rounded=0;whiteSpace=wrap;html=1;" vertex="1" parent="1">
          <mxGeometry x="120" y="517" width="120" height="60" as="geometry" />
        </mxCell>
        <mxCell id="ythB0XY5r4S939yMG-qN-44" value="" style="rounded=0;whiteSpace=wrap;html=1;" vertex="1" parent="1">
          <mxGeometry x="640" y="840" width="120" height="60" as="geometry" />
        </mxCell>
        <mxCell id="ythB0XY5r4S939yMG-qN-200" style="edgeStyle=orthogonalEdgeStyle;rounded=0;orthogonalLoop=1;jettySize=auto;html=1;entryX=0.5;entryY=0;entryDx=0;entryDy=0;" edge="1" parent="1" source="ythB0XY5r4S939yMG-qN-45" target="ythB0XY5r4S939yMG-qN-49">
          <mxGeometry relative="1" as="geometry">
            <Array as="points">
              <mxPoint x="820" y="781" />
              <mxPoint x="140" y="781" />
            </Array>
          </mxGeometry>
        </mxCell>
        <mxCell id="ythB0XY5r4S939yMG-qN-45" value="" style="rounded=0;whiteSpace=wrap;html=1;" vertex="1" parent="1">
          <mxGeometry x="760" y="840" width="120" height="60" as="geometry" />
        </mxCell>
        <mxCell id="ythB0XY5r4S939yMG-qN-46" value="" style="rounded=0;whiteSpace=wrap;html=1;" vertex="1" parent="1">
          <mxGeometry x="880" y="840" width="120" height="60" as="geometry" />
        </mxCell>
        <mxCell id="ythB0XY5r4S939yMG-qN-47" value="" style="rounded=0;whiteSpace=wrap;html=1;" vertex="1" parent="1">
          <mxGeometry x="1000" y="840" width="120" height="60" as="geometry" />
        </mxCell>
        <mxCell id="ythB0XY5r4S939yMG-qN-48" value="" style="rounded=0;whiteSpace=wrap;html=1;" vertex="1" parent="1">
          <mxGeometry x="1120" y="840" width="120" height="60" as="geometry" />
        </mxCell>
        <mxCell id="ythB0XY5r4S939yMG-qN-49" value="" style="rounded=0;whiteSpace=wrap;html=1;" vertex="1" parent="1">
          <mxGeometry x="80" y="840" width="120" height="60" as="geometry" />
        </mxCell>
        <mxCell id="ythB0XY5r4S939yMG-qN-50" value="" style="rounded=0;whiteSpace=wrap;html=1;" vertex="1" parent="1">
          <mxGeometry x="200" y="840" width="120" height="60" as="geometry" />
        </mxCell>
        <mxCell id="ythB0XY5r4S939yMG-qN-51" value="" style="rounded=0;whiteSpace=wrap;html=1;" vertex="1" parent="1">
          <mxGeometry x="320" y="840" width="120" height="60" as="geometry" />
        </mxCell>
        <mxCell id="ythB0XY5r4S939yMG-qN-201" style="edgeStyle=orthogonalEdgeStyle;rounded=0;orthogonalLoop=1;jettySize=auto;html=1;entryX=0.75;entryY=1;entryDx=0;entryDy=0;" edge="1" parent="1" source="ythB0XY5r4S939yMG-qN-52" target="ythB0XY5r4S939yMG-qN-13">
          <mxGeometry relative="1" as="geometry">
            <Array as="points">
              <mxPoint x="500" y="943" />
              <mxPoint x="-17" y="943" />
              <mxPoint x="-17" y="309" />
              <mxPoint x="170" y="309" />
            </Array>
          </mxGeometry>
        </mxCell>
        <mxCell id="ythB0XY5r4S939yMG-qN-52" value="" style="rounded=0;whiteSpace=wrap;html=1;" vertex="1" parent="1">
          <mxGeometry x="440" y="960" width="120" height="60" as="geometry" />
        </mxCell>
        <mxCell id="ythB0XY5r4S939yMG-qN-197" style="edgeStyle=orthogonalEdgeStyle;rounded=0;orthogonalLoop=1;jettySize=auto;html=1;entryX=0.25;entryY=1;entryDx=0;entryDy=0;" edge="1" parent="1" source="ythB0XY5r4S939yMG-qN-53" target="ythB0XY5r4S939yMG-qN-44">
          <mxGeometry relative="1" as="geometry" />
        </mxCell>
        <mxCell id="ythB0XY5r4S939yMG-qN-53" value="" style="rounded=0;whiteSpace=wrap;html=1;" vertex="1" parent="1">
          <mxGeometry x="560" y="960" width="120" height="60" as="geometry" />
        </mxCell>
        <mxCell id="ythB0XY5r4S939yMG-qN-54" value="" style="rounded=0;whiteSpace=wrap;html=1;" vertex="1" parent="1">
          <mxGeometry x="360" y="1120" width="120" height="60" as="geometry" />
        </mxCell>
        <mxCell id="ythB0XY5r4S939yMG-qN-55" value="" style="rounded=0;whiteSpace=wrap;html=1;" vertex="1" parent="1">
          <mxGeometry x="480" y="1120" width="120" height="60" as="geometry" />
        </mxCell>
        <mxCell id="ythB0XY5r4S939yMG-qN-56" value="Cdes" style="rounded=0;whiteSpace=wrap;html=1;" vertex="1" parent="1">
          <mxGeometry x="600" y="1120" width="120" height="60" as="geometry" />
        </mxCell>
        <mxCell id="ythB0XY5r4S939yMG-qN-198" style="edgeStyle=orthogonalEdgeStyle;rounded=0;orthogonalLoop=1;jettySize=auto;html=1;entryX=0.75;entryY=1;entryDx=0;entryDy=0;" edge="1" parent="1" source="ythB0XY5r4S939yMG-qN-57" target="ythB0XY5r4S939yMG-qN-44">
          <mxGeometry relative="1" as="geometry" />
        </mxCell>
        <mxCell id="ythB0XY5r4S939yMG-qN-57" value="" style="rounded=0;whiteSpace=wrap;html=1;" vertex="1" parent="1">
          <mxGeometry x="720" y="1120" width="120" height="60" as="geometry" />
        </mxCell>
        <mxCell id="ythB0XY5r4S939yMG-qN-205" style="edgeStyle=orthogonalEdgeStyle;rounded=0;orthogonalLoop=1;jettySize=auto;html=1;entryX=0.75;entryY=1;entryDx=0;entryDy=0;" edge="1" parent="1" source="ythB0XY5r4S939yMG-qN-58" target="ythB0XY5r4S939yMG-qN-19">
          <mxGeometry relative="1" as="geometry">
            <Array as="points">
              <mxPoint x="1020" y="1016" />
              <mxPoint x="1431" y="1016" />
              <mxPoint x="1431" y="329" />
              <mxPoint x="1010" y="329" />
            </Array>
          </mxGeometry>
        </mxCell>
        <mxCell id="ythB0XY5r4S939yMG-qN-58" value="" style="rounded=0;whiteSpace=wrap;html=1;" vertex="1" parent="1">
          <mxGeometry x="960" y="1120" width="120" height="60" as="geometry" />
        </mxCell>
        <mxCell id="ythB0XY5r4S939yMG-qN-204" style="edgeStyle=orthogonalEdgeStyle;rounded=0;orthogonalLoop=1;jettySize=auto;html=1;entryX=0.5;entryY=0;entryDx=0;entryDy=0;" edge="1" parent="1" source="ythB0XY5r4S939yMG-qN-59" target="ythB0XY5r4S939yMG-qN-72">
          <mxGeometry relative="1" as="geometry">
            <Array as="points">
              <mxPoint x="1140" y="1236" />
              <mxPoint x="700" y="1236" />
            </Array>
          </mxGeometry>
        </mxCell>
        <mxCell id="ythB0XY5r4S939yMG-qN-59" value="" style="rounded=0;whiteSpace=wrap;html=1;" vertex="1" parent="1">
          <mxGeometry x="1080" y="1120" width="120" height="60" as="geometry" />
        </mxCell>
        <mxCell id="ythB0XY5r4S939yMG-qN-65" value="" style="rounded=0;whiteSpace=wrap;html=1;" vertex="1" parent="1">
          <mxGeometry x="960" y="1280" width="120" height="60" as="geometry" />
        </mxCell>
        <mxCell id="ythB0XY5r4S939yMG-qN-66" value="" style="rounded=0;whiteSpace=wrap;html=1;" vertex="1" parent="1">
          <mxGeometry x="1080" y="1280" width="120" height="60" as="geometry" />
        </mxCell>
        <mxCell id="ythB0XY5r4S939yMG-qN-67" value="" style="rounded=0;whiteSpace=wrap;html=1;" vertex="1" parent="1">
          <mxGeometry x="1200" y="1280" width="120" height="60" as="geometry" />
        </mxCell>
        <mxCell id="ythB0XY5r4S939yMG-qN-233" style="edgeStyle=orthogonalEdgeStyle;rounded=0;orthogonalLoop=1;jettySize=auto;html=1;entryX=0.25;entryY=1;entryDx=0;entryDy=0;" edge="1" parent="1" source="ythB0XY5r4S939yMG-qN-68" target="ythB0XY5r4S939yMG-qN-31">
          <mxGeometry relative="1" as="geometry">
            <Array as="points">
              <mxPoint x="1380" y="634" />
              <mxPoint x="630" y="634" />
            </Array>
          </mxGeometry>
        </mxCell>
        <mxCell id="ythB0XY5r4S939yMG-qN-68" value="&lt;span&gt;Ins_Researcher_ID&lt;/span&gt;" style="rounded=0;whiteSpace=wrap;html=1;" vertex="1" parent="1">
          <mxGeometry x="1320" y="1280" width="120" height="60" as="geometry" />
        </mxCell>
        <mxCell id="ythB0XY5r4S939yMG-qN-69" value="" style="rounded=0;whiteSpace=wrap;html=1;" vertex="1" parent="1">
          <mxGeometry x="1440" y="1280" width="120" height="60" as="geometry" />
        </mxCell>
        <mxCell id="ythB0XY5r4S939yMG-qN-70" value="" style="rounded=0;whiteSpace=wrap;html=1;" vertex="1" parent="1">
          <mxGeometry x="400" y="1280" width="120" height="60" as="geometry" />
        </mxCell>
        <mxCell id="ythB0XY5r4S939yMG-qN-71" value="" style="rounded=0;whiteSpace=wrap;html=1;" vertex="1" parent="1">
          <mxGeometry x="520" y="1280" width="120" height="60" as="geometry" />
        </mxCell>
        <mxCell id="ythB0XY5r4S939yMG-qN-206" style="edgeStyle=orthogonalEdgeStyle;rounded=0;orthogonalLoop=1;jettySize=auto;html=1;entryX=0.5;entryY=1;entryDx=0;entryDy=0;" edge="1" parent="1" source="ythB0XY5r4S939yMG-qN-72" target="ythB0XY5r4S939yMG-qN-65">
          <mxGeometry relative="1" as="geometry">
            <Array as="points">
              <mxPoint x="700" y="1377" />
              <mxPoint x="1020" y="1377" />
            </Array>
          </mxGeometry>
        </mxCell>
        <mxCell id="ythB0XY5r4S939yMG-qN-72" value="" style="rounded=0;whiteSpace=wrap;html=1;" vertex="1" parent="1">
          <mxGeometry x="640" y="1280" width="120" height="60" as="geometry" />
        </mxCell>
        <mxCell id="ythB0XY5r4S939yMG-qN-209" style="edgeStyle=orthogonalEdgeStyle;rounded=0;orthogonalLoop=1;jettySize=auto;html=1;entryX=0.398;entryY=0.938;entryDx=0;entryDy=0;entryPerimeter=0;" edge="1" parent="1" source="ythB0XY5r4S939yMG-qN-73" target="ythB0XY5r4S939yMG-qN-19">
          <mxGeometry relative="1" as="geometry">
            <Array as="points">
              <mxPoint x="1144" y="1392" />
              <mxPoint x="1579" y="1392" />
              <mxPoint x="1579" y="338" />
              <mxPoint x="968" y="338" />
            </Array>
          </mxGeometry>
        </mxCell>
        <mxCell id="ythB0XY5r4S939yMG-qN-73" value="" style="rounded=0;whiteSpace=wrap;html=1;" vertex="1" parent="1">
          <mxGeometry x="1084" y="1416" width="120" height="60" as="geometry" />
        </mxCell>
        <mxCell id="ythB0XY5r4S939yMG-qN-208" style="edgeStyle=orthogonalEdgeStyle;rounded=0;orthogonalLoop=1;jettySize=auto;html=1;entryX=0.75;entryY=1;entryDx=0;entryDy=0;" edge="1" parent="1" source="ythB0XY5r4S939yMG-qN-74" target="ythB0XY5r4S939yMG-qN-65">
          <mxGeometry relative="1" as="geometry" />
        </mxCell>
        <mxCell id="ythB0XY5r4S939yMG-qN-74" value="" style="rounded=0;whiteSpace=wrap;html=1;" vertex="1" parent="1">
          <mxGeometry x="964" y="1416" width="120" height="60" as="geometry" />
        </mxCell>
        <mxCell id="ythB0XY5r4S939yMG-qN-75" value="" style="rounded=0;whiteSpace=wrap;html=1;" vertex="1" parent="1">
          <mxGeometry x="1204" y="1416" width="120" height="60" as="geometry" />
        </mxCell>
        <mxCell id="ythB0XY5r4S939yMG-qN-76" value="Zip" style="text;html=1;strokeColor=none;fillColor=none;align=center;verticalAlign=middle;whiteSpace=wrap;rounded=0;" vertex="1" parent="1">
          <mxGeometry x="1440" y="60" width="40" height="20" as="geometry" />
        </mxCell>
        <mxCell id="ythB0XY5r4S939yMG-qN-77" value="State" style="text;html=1;strokeColor=none;fillColor=none;align=center;verticalAlign=middle;whiteSpace=wrap;rounded=0;" vertex="1" parent="1">
          <mxGeometry x="1320" y="60" width="40" height="20" as="geometry" />
        </mxCell>
        <mxCell id="ythB0XY5r4S939yMG-qN-78" value="City" style="text;html=1;strokeColor=none;fillColor=none;align=center;verticalAlign=middle;whiteSpace=wrap;rounded=0;" vertex="1" parent="1">
          <mxGeometry x="1200" y="60" width="40" height="20" as="geometry" />
        </mxCell>
        <mxCell id="ythB0XY5r4S939yMG-qN-79" value="Apt_no" style="text;html=1;strokeColor=none;fillColor=none;align=center;verticalAlign=middle;whiteSpace=wrap;rounded=0;" vertex="1" parent="1">
          <mxGeometry x="1080" y="60" width="40" height="20" as="geometry" />
        </mxCell>
        <mxCell id="ythB0XY5r4S939yMG-qN-80" value="Street" style="text;html=1;strokeColor=none;fillColor=none;align=center;verticalAlign=middle;whiteSpace=wrap;rounded=0;" vertex="1" parent="1">
          <mxGeometry x="960" y="60" width="40" height="20" as="geometry" />
        </mxCell>
        <mxCell id="ythB0XY5r4S939yMG-qN-81" value="No" style="text;html=1;strokeColor=none;fillColor=none;align=center;verticalAlign=middle;whiteSpace=wrap;rounded=0;" vertex="1" parent="1">
          <mxGeometry x="840" y="60" width="40" height="20" as="geometry" />
        </mxCell>
        <mxCell id="ythB0XY5r4S939yMG-qN-82" value="Sex" style="text;html=1;strokeColor=none;fillColor=none;align=center;verticalAlign=middle;whiteSpace=wrap;rounded=0;" vertex="1" parent="1">
          <mxGeometry x="720" y="60" width="40" height="20" as="geometry" />
        </mxCell>
        <mxCell id="ythB0XY5r4S939yMG-qN-83" value="Bdate" style="text;html=1;strokeColor=none;fillColor=none;align=center;verticalAlign=middle;whiteSpace=wrap;rounded=0;" vertex="1" parent="1">
          <mxGeometry x="600" y="60" width="40" height="20" as="geometry" />
        </mxCell>
        <mxCell id="ythB0XY5r4S939yMG-qN-84" value="SSn" style="text;html=1;strokeColor=none;fillColor=none;align=center;verticalAlign=middle;whiteSpace=wrap;rounded=0;" vertex="1" parent="1">
          <mxGeometry x="480" y="60" width="40" height="20" as="geometry" />
        </mxCell>
        <mxCell id="ythB0XY5r4S939yMG-qN-85" value="Lname" style="text;html=1;strokeColor=none;fillColor=none;align=center;verticalAlign=middle;whiteSpace=wrap;rounded=0;" vertex="1" parent="1">
          <mxGeometry x="360" y="60" width="40" height="20" as="geometry" />
        </mxCell>
        <mxCell id="ythB0XY5r4S939yMG-qN-86" value="Minit" style="text;html=1;strokeColor=none;fillColor=none;align=center;verticalAlign=middle;whiteSpace=wrap;rounded=0;" vertex="1" parent="1">
          <mxGeometry x="240" y="60" width="40" height="20" as="geometry" />
        </mxCell>
        <mxCell id="ythB0XY5r4S939yMG-qN-87" value="Fname" style="text;html=1;strokeColor=none;fillColor=none;align=center;verticalAlign=middle;whiteSpace=wrap;rounded=0;" vertex="1" parent="1">
          <mxGeometry x="120" y="60" width="40" height="20" as="geometry" />
        </mxCell>
        <mxCell id="ythB0XY5r4S939yMG-qN-88" value="&lt;b&gt;Person&lt;/b&gt;" style="text;html=1;strokeColor=none;fillColor=none;align=center;verticalAlign=middle;whiteSpace=wrap;rounded=0;" vertex="1" parent="1">
          <mxGeometry x="80" y="20" width="40" height="20" as="geometry" />
        </mxCell>
        <mxCell id="ythB0XY5r4S939yMG-qN-91" value="&lt;b&gt;Student&lt;/b&gt;" style="text;html=1;strokeColor=none;fillColor=none;align=center;verticalAlign=middle;whiteSpace=wrap;rounded=0;" vertex="1" parent="1">
          <mxGeometry x="920" y="180" width="40" height="20" as="geometry" />
        </mxCell>
        <mxCell id="ythB0XY5r4S939yMG-qN-92" value="Ins_Researcher_ID" style="text;html=1;strokeColor=none;fillColor=none;align=center;verticalAlign=middle;whiteSpace=wrap;rounded=0;" vertex="1" parent="1">
          <mxGeometry x="720" y="220" width="40" height="20" as="geometry" />
        </mxCell>
        <mxCell id="ythB0XY5r4S939yMG-qN-93" value="Salary" style="text;html=1;strokeColor=none;fillColor=none;align=center;verticalAlign=middle;whiteSpace=wrap;rounded=0;" vertex="1" parent="1">
          <mxGeometry x="600" y="220" width="40" height="20" as="geometry" />
        </mxCell>
        <mxCell id="ythB0XY5r4S939yMG-qN-94" value="Fphone" style="text;html=1;strokeColor=none;fillColor=none;align=center;verticalAlign=middle;whiteSpace=wrap;rounded=0;" vertex="1" parent="1">
          <mxGeometry x="480" y="220" width="40" height="20" as="geometry" />
        </mxCell>
        <mxCell id="ythB0XY5r4S939yMG-qN-95" value="Foffice" style="text;html=1;strokeColor=none;fillColor=none;align=center;verticalAlign=middle;whiteSpace=wrap;rounded=0;" vertex="1" parent="1">
          <mxGeometry x="360" y="220" width="40" height="20" as="geometry" />
        </mxCell>
        <mxCell id="ythB0XY5r4S939yMG-qN-96" value="Rank" style="text;html=1;strokeColor=none;fillColor=none;align=center;verticalAlign=middle;whiteSpace=wrap;rounded=0;" vertex="1" parent="1">
          <mxGeometry x="240" y="220" width="40" height="20" as="geometry" />
        </mxCell>
        <mxCell id="ythB0XY5r4S939yMG-qN-97" value="SSn" style="text;html=1;strokeColor=none;fillColor=none;align=center;verticalAlign=middle;whiteSpace=wrap;rounded=0;" vertex="1" parent="1">
          <mxGeometry x="120" y="220" width="40" height="20" as="geometry" />
        </mxCell>
        <mxCell id="ythB0XY5r4S939yMG-qN-98" value="&lt;b&gt;Faculty&lt;/b&gt;" style="text;html=1;strokeColor=none;fillColor=none;align=center;verticalAlign=middle;whiteSpace=wrap;rounded=0;" vertex="1" parent="1">
          <mxGeometry x="80" y="180" width="40" height="20" as="geometry" />
        </mxCell>
        <mxCell id="ythB0XY5r4S939yMG-qN-99" value="Dname_Major" style="text;html=1;strokeColor=none;fillColor=none;align=center;verticalAlign=middle;whiteSpace=wrap;rounded=0;" vertex="1" parent="1">
          <mxGeometry x="1320" y="220" width="40" height="20" as="geometry" />
        </mxCell>
        <mxCell id="ythB0XY5r4S939yMG-qN-100" value="Dname_Minor" style="text;html=1;strokeColor=none;fillColor=none;align=center;verticalAlign=middle;whiteSpace=wrap;rounded=0;" vertex="1" parent="1">
          <mxGeometry x="1200" y="220" width="40" height="20" as="geometry" />
        </mxCell>
        <mxCell id="ythB0XY5r4S939yMG-qN-101" value="Class" style="text;html=1;strokeColor=none;fillColor=none;align=center;verticalAlign=middle;whiteSpace=wrap;rounded=0;" vertex="1" parent="1">
          <mxGeometry x="1080" y="220" width="40" height="20" as="geometry" />
        </mxCell>
        <mxCell id="ythB0XY5r4S939yMG-qN-102" value="SSn" style="text;html=1;strokeColor=none;fillColor=none;align=center;verticalAlign=middle;whiteSpace=wrap;rounded=0;" vertex="1" parent="1">
          <mxGeometry x="960" y="220" width="40" height="20" as="geometry" />
        </mxCell>
        <mxCell id="ythB0XY5r4S939yMG-qN-103" value="&lt;b&gt;Degree&lt;/b&gt;" style="text;html=1;strokeColor=none;fillColor=none;align=center;verticalAlign=middle;whiteSpace=wrap;rounded=0;" vertex="1" parent="1">
          <mxGeometry x="920" y="500" width="40" height="20" as="geometry" />
        </mxCell>
        <mxCell id="ythB0XY5r4S939yMG-qN-104" value="Year" style="text;html=1;strokeColor=none;fillColor=none;align=center;verticalAlign=middle;whiteSpace=wrap;rounded=0;" vertex="1" parent="1">
          <mxGeometry x="1320" y="540" width="40" height="20" as="geometry" />
        </mxCell>
        <mxCell id="ythB0XY5r4S939yMG-qN-105" value="College" style="text;html=1;strokeColor=none;fillColor=none;align=center;verticalAlign=middle;whiteSpace=wrap;rounded=0;" vertex="1" parent="1">
          <mxGeometry x="1200" y="540" width="40" height="20" as="geometry" />
        </mxCell>
        <mxCell id="ythB0XY5r4S939yMG-qN-106" value="Degree" style="text;html=1;strokeColor=none;fillColor=none;align=center;verticalAlign=middle;whiteSpace=wrap;rounded=0;" vertex="1" parent="1">
          <mxGeometry x="1080" y="540" width="40" height="20" as="geometry" />
        </mxCell>
        <mxCell id="ythB0XY5r4S939yMG-qN-107" value="Grad_Stud_SSn" style="text;html=1;strokeColor=none;fillColor=none;align=center;verticalAlign=middle;whiteSpace=wrap;rounded=0;" vertex="1" parent="1">
          <mxGeometry x="960" y="540" width="40" height="20" as="geometry" />
        </mxCell>
        <mxCell id="ythB0XY5r4S939yMG-qN-108" value="Faculty_SSn" style="text;html=1;strokeColor=none;fillColor=none;align=center;verticalAlign=middle;whiteSpace=wrap;rounded=0;" vertex="1" parent="1">
          <mxGeometry x="1320" y="380" width="40" height="20" as="geometry" />
        </mxCell>
        <mxCell id="ythB0XY5r4S939yMG-qN-109" value="Class=5" style="text;html=1;strokeColor=none;fillColor=none;align=center;verticalAlign=middle;whiteSpace=wrap;rounded=0;" vertex="1" parent="1">
          <mxGeometry x="1200" y="380" width="40" height="20" as="geometry" />
        </mxCell>
        <mxCell id="ythB0XY5r4S939yMG-qN-110" value="&lt;b&gt;Grad_Student&lt;/b&gt;" style="text;html=1;strokeColor=none;fillColor=none;align=center;verticalAlign=middle;whiteSpace=wrap;rounded=0;" vertex="1" parent="1">
          <mxGeometry x="920" y="340" width="40" height="20" as="geometry" />
        </mxCell>
        <mxCell id="ythB0XY5r4S939yMG-qN-111" value="SSn" style="text;html=1;strokeColor=none;fillColor=none;align=center;verticalAlign=middle;whiteSpace=wrap;rounded=0;" vertex="1" parent="1">
          <mxGeometry x="1080" y="380" width="40" height="20" as="geometry" />
        </mxCell>
        <mxCell id="ythB0XY5r4S939yMG-qN-113" value="Ins_Researcher_ID" style="text;html=1;strokeColor=none;fillColor=none;align=center;verticalAlign=middle;whiteSpace=wrap;rounded=0;" vertex="1" parent="1">
          <mxGeometry x="640" y="460" width="40" height="20" as="geometry" />
        </mxCell>
        <mxCell id="ythB0XY5r4S939yMG-qN-114" value="Instructor_Researcher" style="text;html=1;strokeColor=none;fillColor=none;align=center;verticalAlign=middle;whiteSpace=wrap;rounded=0;" vertex="1" parent="1">
          <mxGeometry x="640" y="420" width="40" height="20" as="geometry" />
        </mxCell>
        <mxCell id="ythB0XY5r4S939yMG-qN-116" value="Start" style="text;html=1;strokeColor=none;fillColor=none;align=center;verticalAlign=middle;whiteSpace=wrap;rounded=0;" vertex="1" parent="1">
          <mxGeometry x="920" y="700" width="40" height="20" as="geometry" />
        </mxCell>
        <mxCell id="ythB0XY5r4S939yMG-qN-117" value="Ins_Researcher_ID" style="text;html=1;strokeColor=none;fillColor=none;align=center;verticalAlign=middle;whiteSpace=wrap;rounded=0;" vertex="1" parent="1">
          <mxGeometry x="800" y="700" width="40" height="20" as="geometry" />
        </mxCell>
        <mxCell id="ythB0XY5r4S939yMG-qN-118" value="&lt;b&gt;Grant&lt;/b&gt;" style="text;html=1;strokeColor=none;fillColor=none;align=center;verticalAlign=middle;whiteSpace=wrap;rounded=0;" vertex="1" parent="1">
          <mxGeometry x="-10" y="660" width="40" height="20" as="geometry" />
        </mxCell>
        <mxCell id="ythB0XY5r4S939yMG-qN-119" value="No" style="text;html=1;strokeColor=none;fillColor=none;align=center;verticalAlign=middle;whiteSpace=wrap;rounded=0;" vertex="1" parent="1">
          <mxGeometry x="680" y="700" width="40" height="20" as="geometry" />
        </mxCell>
        <mxCell id="ythB0XY5r4S939yMG-qN-120" value="St_date" style="text;html=1;strokeColor=none;fillColor=none;align=center;verticalAlign=middle;whiteSpace=wrap;rounded=0;" vertex="1" parent="1">
          <mxGeometry x="510" y="700" width="40" height="20" as="geometry" />
        </mxCell>
        <mxCell id="ythB0XY5r4S939yMG-qN-121" value="Agency" style="text;html=1;strokeColor=none;fillColor=none;align=center;verticalAlign=middle;whiteSpace=wrap;rounded=0;" vertex="1" parent="1">
          <mxGeometry x="385" y="700" width="40" height="20" as="geometry" />
        </mxCell>
        <mxCell id="ythB0XY5r4S939yMG-qN-122" value="Title" style="text;html=1;strokeColor=none;fillColor=none;align=center;verticalAlign=middle;whiteSpace=wrap;rounded=0;" vertex="1" parent="1">
          <mxGeometry x="260" y="700" width="40" height="20" as="geometry" />
        </mxCell>
        <mxCell id="ythB0XY5r4S939yMG-qN-123" value="No" style="text;html=1;strokeColor=none;fillColor=none;align=center;verticalAlign=middle;whiteSpace=wrap;rounded=0;" vertex="1" parent="1">
          <mxGeometry x="150" y="700" width="40" height="20" as="geometry" />
        </mxCell>
        <mxCell id="ythB0XY5r4S939yMG-qN-124" value="Faculty_SSn" style="text;html=1;strokeColor=none;fillColor=none;align=center;verticalAlign=middle;whiteSpace=wrap;rounded=0;" vertex="1" parent="1">
          <mxGeometry x="30" y="700" width="40" height="20" as="geometry" />
        </mxCell>
        <mxCell id="ythB0XY5r4S939yMG-qN-125" value="Faculty_SSn" style="text;html=1;strokeColor=none;fillColor=none;align=center;verticalAlign=middle;whiteSpace=wrap;rounded=0;" vertex="1" parent="1">
          <mxGeometry x="160" y="537" width="40" height="20" as="geometry" />
        </mxCell>
        <mxCell id="ythB0XY5r4S939yMG-qN-126" value="Grad_Stud_SSn" style="text;html=1;strokeColor=none;fillColor=none;align=center;verticalAlign=middle;whiteSpace=wrap;rounded=0;" vertex="1" parent="1">
          <mxGeometry x="280" y="537" width="40" height="20" as="geometry" />
        </mxCell>
        <mxCell id="ythB0XY5r4S939yMG-qN-127" value="&lt;b&gt;Committee&lt;/b&gt;" style="text;html=1;strokeColor=none;fillColor=none;align=center;verticalAlign=middle;whiteSpace=wrap;rounded=0;" vertex="1" parent="1">
          <mxGeometry x="122" y="497" width="40" height="20" as="geometry" />
        </mxCell>
        <mxCell id="ythB0XY5r4S939yMG-qN-129" value="End" style="text;html=1;strokeColor=none;fillColor=none;align=center;verticalAlign=middle;whiteSpace=wrap;rounded=0;" vertex="1" parent="1">
          <mxGeometry x="1160" y="700" width="40" height="20" as="geometry" />
        </mxCell>
        <mxCell id="ythB0XY5r4S939yMG-qN-130" value="Time" style="text;html=1;strokeColor=none;fillColor=none;align=center;verticalAlign=middle;whiteSpace=wrap;rounded=0;" vertex="1" parent="1">
          <mxGeometry x="1040" y="700" width="40" height="20" as="geometry" />
        </mxCell>
        <mxCell id="ythB0XY5r4S939yMG-qN-131" value="&lt;b&gt;Support&lt;/b&gt;" style="text;html=1;strokeColor=none;fillColor=none;align=center;verticalAlign=middle;whiteSpace=wrap;rounded=0;" vertex="1" parent="1">
          <mxGeometry x="640" y="657" width="40" height="20" as="geometry" />
        </mxCell>
        <mxCell id="ythB0XY5r4S939yMG-qN-133" value="Registered" style="text;html=1;strokeColor=none;fillColor=none;align=center;verticalAlign=middle;whiteSpace=wrap;rounded=0;" vertex="1" parent="1">
          <mxGeometry x="960" y="1098" width="40" height="20" as="geometry" />
        </mxCell>
        <mxCell id="ythB0XY5r4S939yMG-qN-134" value="&lt;b&gt;Course&lt;/b&gt;" style="text;html=1;strokeColor=none;fillColor=none;align=center;verticalAlign=middle;whiteSpace=wrap;rounded=0;" vertex="1" parent="1">
          <mxGeometry x="356" y="1098" width="40" height="20" as="geometry" />
        </mxCell>
        <mxCell id="ythB0XY5r4S939yMG-qN-135" value="Chairman_SSn" style="text;html=1;strokeColor=none;fillColor=none;align=center;verticalAlign=middle;whiteSpace=wrap;rounded=0;" vertex="1" parent="1">
          <mxGeometry x="1167" y="860" width="40" height="20" as="geometry" />
        </mxCell>
        <mxCell id="ythB0XY5r4S939yMG-qN-136" value="Office" style="text;html=1;strokeColor=none;fillColor=none;align=center;verticalAlign=middle;whiteSpace=wrap;rounded=0;" vertex="1" parent="1">
          <mxGeometry x="1040" y="860" width="40" height="20" as="geometry" />
        </mxCell>
        <mxCell id="ythB0XY5r4S939yMG-qN-137" value="Dphone" style="text;html=1;strokeColor=none;fillColor=none;align=center;verticalAlign=middle;whiteSpace=wrap;rounded=0;" vertex="1" parent="1">
          <mxGeometry x="924" y="860" width="40" height="20" as="geometry" />
        </mxCell>
        <mxCell id="ythB0XY5r4S939yMG-qN-138" value="Cname" style="text;html=1;strokeColor=none;fillColor=none;align=center;verticalAlign=middle;whiteSpace=wrap;rounded=0;" vertex="1" parent="1">
          <mxGeometry x="800" y="860" width="40" height="20" as="geometry" />
        </mxCell>
        <mxCell id="ythB0XY5r4S939yMG-qN-139" value="Dname" style="text;html=1;strokeColor=none;fillColor=none;align=center;verticalAlign=middle;whiteSpace=wrap;rounded=0;" vertex="1" parent="1">
          <mxGeometry x="677" y="860" width="40" height="20" as="geometry" />
        </mxCell>
        <mxCell id="ythB0XY5r4S939yMG-qN-140" value="Dname" style="text;html=1;strokeColor=none;fillColor=none;align=center;verticalAlign=middle;whiteSpace=wrap;rounded=0;" vertex="1" parent="1">
          <mxGeometry x="595" y="977" width="40" height="20" as="geometry" />
        </mxCell>
        <mxCell id="ythB0XY5r4S939yMG-qN-141" value="Faculty_SSn" style="text;html=1;strokeColor=none;fillColor=none;align=center;verticalAlign=middle;whiteSpace=wrap;rounded=0;" vertex="1" parent="1">
          <mxGeometry x="480" y="977" width="40" height="20" as="geometry" />
        </mxCell>
        <mxCell id="ythB0XY5r4S939yMG-qN-142" value="&lt;b&gt;Belongs&lt;/b&gt;" style="text;html=1;strokeColor=none;fillColor=none;align=center;verticalAlign=middle;whiteSpace=wrap;rounded=0;" vertex="1" parent="1">
          <mxGeometry x="440" y="940" width="40" height="20" as="geometry" />
        </mxCell>
        <mxCell id="ythB0XY5r4S939yMG-qN-143" value="&lt;b&gt;Department&lt;/b&gt;" style="text;html=1;strokeColor=none;fillColor=none;align=center;verticalAlign=middle;whiteSpace=wrap;rounded=0;" vertex="1" parent="1">
          <mxGeometry x="640" y="817" width="40" height="20" as="geometry" />
        </mxCell>
        <mxCell id="ythB0XY5r4S939yMG-qN-144" value="&lt;b&gt;College&lt;/b&gt;" style="text;html=1;strokeColor=none;fillColor=none;align=center;verticalAlign=middle;whiteSpace=wrap;rounded=0;" vertex="1" parent="1">
          <mxGeometry x="80" y="820" width="40" height="20" as="geometry" />
        </mxCell>
        <mxCell id="ythB0XY5r4S939yMG-qN-145" value="Coffice" style="text;html=1;strokeColor=none;fillColor=none;align=center;verticalAlign=middle;whiteSpace=wrap;rounded=0;" vertex="1" parent="1">
          <mxGeometry x="356" y="860" width="40" height="20" as="geometry" />
        </mxCell>
        <mxCell id="ythB0XY5r4S939yMG-qN-146" value="Dean" style="text;html=1;strokeColor=none;fillColor=none;align=center;verticalAlign=middle;whiteSpace=wrap;rounded=0;" vertex="1" parent="1">
          <mxGeometry x="235" y="860" width="40" height="20" as="geometry" />
        </mxCell>
        <mxCell id="ythB0XY5r4S939yMG-qN-147" value="Cname" style="text;html=1;strokeColor=none;fillColor=none;align=center;verticalAlign=middle;whiteSpace=wrap;rounded=0;" vertex="1" parent="1">
          <mxGeometry x="117" y="860" width="40" height="20" as="geometry" />
        </mxCell>
        <mxCell id="ythB0XY5r4S939yMG-qN-150" value="Sec#" style="text;html=1;strokeColor=none;fillColor=none;align=center;verticalAlign=middle;whiteSpace=wrap;rounded=0;" vertex="1" parent="1">
          <mxGeometry x="680" y="1298" width="40" height="20" as="geometry" />
        </mxCell>
        <mxCell id="ythB0XY5r4S939yMG-qN-151" value="Current year" style="text;html=1;strokeColor=none;fillColor=none;align=center;verticalAlign=middle;whiteSpace=wrap;rounded=0;" vertex="1" parent="1">
          <mxGeometry x="555" y="1300" width="40" height="20" as="geometry" />
        </mxCell>
        <mxCell id="ythB0XY5r4S939yMG-qN-152" value="Current_section" style="text;html=1;strokeColor=none;fillColor=none;align=center;verticalAlign=middle;whiteSpace=wrap;rounded=0;" vertex="1" parent="1">
          <mxGeometry x="400" y="1260" width="40" height="20" as="geometry" />
        </mxCell>
        <mxCell id="ythB0XY5r4S939yMG-qN-153" value="Current Qtr" style="text;html=1;strokeColor=none;fillColor=none;align=center;verticalAlign=middle;whiteSpace=wrap;rounded=0;" vertex="1" parent="1">
          <mxGeometry x="433" y="1300" width="40" height="20" as="geometry" />
        </mxCell>
        <mxCell id="ythB0XY5r4S939yMG-qN-154" value="Sec#" style="text;html=1;strokeColor=none;fillColor=none;align=center;verticalAlign=middle;whiteSpace=wrap;rounded=0;" vertex="1" parent="1">
          <mxGeometry x="1120" y="1140" width="40" height="20" as="geometry" />
        </mxCell>
        <mxCell id="ythB0XY5r4S939yMG-qN-155" value="Student_SSn" style="text;html=1;strokeColor=none;fillColor=none;align=center;verticalAlign=middle;whiteSpace=wrap;rounded=0;" vertex="1" parent="1">
          <mxGeometry x="1002" y="1140" width="40" height="20" as="geometry" />
        </mxCell>
        <mxCell id="ythB0XY5r4S939yMG-qN-156" value="Dname" style="text;html=1;strokeColor=none;fillColor=none;align=center;verticalAlign=middle;whiteSpace=wrap;rounded=0;" vertex="1" parent="1">
          <mxGeometry x="760" y="1140" width="40" height="20" as="geometry" />
        </mxCell>
        <mxCell id="ythB0XY5r4S939yMG-qN-158" value="Cname" style="text;html=1;strokeColor=none;fillColor=none;align=center;verticalAlign=middle;whiteSpace=wrap;rounded=0;" vertex="1" parent="1">
          <mxGeometry x="520" y="1140" width="40" height="20" as="geometry" />
        </mxCell>
        <mxCell id="ythB0XY5r4S939yMG-qN-159" value="C#" style="text;html=1;strokeColor=none;fillColor=none;align=center;verticalAlign=middle;whiteSpace=wrap;rounded=0;" vertex="1" parent="1">
          <mxGeometry x="393" y="1140" width="40" height="20" as="geometry" />
        </mxCell>
        <mxCell id="ythB0XY5r4S939yMG-qN-161" value="Qtr" style="text;html=1;strokeColor=none;fillColor=none;align=center;verticalAlign=middle;whiteSpace=wrap;rounded=0;" vertex="1" parent="1">
          <mxGeometry x="1235" y="1298" width="40" height="20" as="geometry" />
        </mxCell>
        <mxCell id="ythB0XY5r4S939yMG-qN-162" value="Year" style="text;html=1;strokeColor=none;fillColor=none;align=center;verticalAlign=middle;whiteSpace=wrap;rounded=0;" vertex="1" parent="1">
          <mxGeometry x="1120" y="1300" width="40" height="20" as="geometry" />
        </mxCell>
        <mxCell id="ythB0XY5r4S939yMG-qN-163" value="Sec#" style="text;html=1;strokeColor=none;fillColor=none;align=center;verticalAlign=middle;whiteSpace=wrap;rounded=0;" vertex="1" parent="1">
          <mxGeometry x="998" y="1298" width="40" height="20" as="geometry" />
        </mxCell>
        <mxCell id="ythB0XY5r4S939yMG-qN-164" value="&lt;b&gt;Section&lt;/b&gt;" style="text;html=1;strokeColor=none;fillColor=none;align=center;verticalAlign=middle;whiteSpace=wrap;rounded=0;" vertex="1" parent="1">
          <mxGeometry x="958" y="1260" width="40" height="20" as="geometry" />
        </mxCell>
        <mxCell id="ythB0XY5r4S939yMG-qN-165" value="C#" style="text;html=1;strokeColor=none;fillColor=none;align=center;verticalAlign=middle;whiteSpace=wrap;rounded=0;" vertex="1" parent="1">
          <mxGeometry x="1480" y="1300" width="40" height="20" as="geometry" />
        </mxCell>
        <mxCell id="ythB0XY5r4S939yMG-qN-167" value="Grade" style="text;html=1;strokeColor=none;fillColor=none;align=center;verticalAlign=middle;whiteSpace=wrap;rounded=0;" vertex="1" parent="1">
          <mxGeometry x="1234" y="1432" width="40" height="20" as="geometry" />
        </mxCell>
        <mxCell id="ythB0XY5r4S939yMG-qN-168" value="Sec#" style="text;html=1;strokeColor=none;fillColor=none;align=center;verticalAlign=middle;whiteSpace=wrap;rounded=0;" vertex="1" parent="1">
          <mxGeometry x="994" y="1432" width="40" height="20" as="geometry" />
        </mxCell>
        <mxCell id="ythB0XY5r4S939yMG-qN-169" value="Student_SSn" style="text;html=1;strokeColor=none;fillColor=none;align=center;verticalAlign=middle;whiteSpace=wrap;rounded=0;" vertex="1" parent="1">
          <mxGeometry x="1124" y="1432" width="40" height="20" as="geometry" />
        </mxCell>
        <mxCell id="ythB0XY5r4S939yMG-qN-170" value="Transcript" style="text;html=1;strokeColor=none;fillColor=none;align=center;verticalAlign=middle;whiteSpace=wrap;rounded=0;" vertex="1" parent="1">
          <mxGeometry x="964" y="1393" width="40" height="20" as="geometry" />
        </mxCell>
        <mxCell id="ythB0XY5r4S939yMG-qN-210" value="" style="endArrow=none;html=1;" edge="1" parent="1">
          <mxGeometry width="50" height="50" relative="1" as="geometry">
            <mxPoint x="473" y="80" as="sourcePoint" />
            <mxPoint x="539" y="80" as="targetPoint" />
          </mxGeometry>
        </mxCell>
        <mxCell id="ythB0XY5r4S939yMG-qN-211" value="" style="endArrow=none;html=1;" edge="1" parent="1">
          <mxGeometry width="50" height="50" relative="1" as="geometry">
            <mxPoint x="107" y="238.82" as="sourcePoint" />
            <mxPoint x="173" y="238.82" as="targetPoint" />
          </mxGeometry>
        </mxCell>
        <mxCell id="ythB0XY5r4S939yMG-qN-212" value="" style="endArrow=none;html=1;" edge="1" parent="1">
          <mxGeometry width="50" height="50" relative="1" as="geometry">
            <mxPoint x="945" y="238.82" as="sourcePoint" />
            <mxPoint x="1011" y="238.82" as="targetPoint" />
          </mxGeometry>
        </mxCell>
        <mxCell id="ythB0XY5r4S939yMG-qN-214" value="" style="endArrow=none;html=1;" edge="1" parent="1">
          <mxGeometry width="50" height="50" relative="1" as="geometry">
            <mxPoint x="1072" y="400.00000000000006" as="sourcePoint" />
            <mxPoint x="1138" y="400.00000000000006" as="targetPoint" />
          </mxGeometry>
        </mxCell>
        <mxCell id="ythB0XY5r4S939yMG-qN-215" value="" style="endArrow=none;html=1;" edge="1" parent="1">
          <mxGeometry width="50" height="50" relative="1" as="geometry">
            <mxPoint x="624" y="484.00000000000006" as="sourcePoint" />
            <mxPoint x="690" y="484.00000000000006" as="targetPoint" />
          </mxGeometry>
        </mxCell>
        <mxCell id="ythB0XY5r4S939yMG-qN-216" value="" style="endArrow=none;html=1;" edge="1" parent="1">
          <mxGeometry width="50" height="50" relative="1" as="geometry">
            <mxPoint x="942" y="560" as="sourcePoint" />
            <mxPoint x="1008" y="560" as="targetPoint" />
          </mxGeometry>
        </mxCell>
        <mxCell id="ythB0XY5r4S939yMG-qN-217" value="" style="endArrow=none;html=1;" edge="1" parent="1">
          <mxGeometry width="50" height="50" relative="1" as="geometry">
            <mxPoint x="1062.9999999999995" y="560" as="sourcePoint" />
            <mxPoint x="1129" y="560" as="targetPoint" />
          </mxGeometry>
        </mxCell>
        <mxCell id="ythB0XY5r4S939yMG-qN-218" value="" style="endArrow=none;html=1;" edge="1" parent="1">
          <mxGeometry width="50" height="50" relative="1" as="geometry">
            <mxPoint x="777.9999999999995" y="720" as="sourcePoint" />
            <mxPoint x="844" y="720" as="targetPoint" />
          </mxGeometry>
        </mxCell>
        <mxCell id="ythB0XY5r4S939yMG-qN-219" value="" style="endArrow=none;html=1;" edge="1" parent="1">
          <mxGeometry width="50" height="50" relative="1" as="geometry">
            <mxPoint x="666.9999999999995" y="720" as="sourcePoint" />
            <mxPoint x="733" y="720" as="targetPoint" />
          </mxGeometry>
        </mxCell>
        <mxCell id="ythB0XY5r4S939yMG-qN-220" value="" style="endArrow=none;html=1;" edge="1" parent="1">
          <mxGeometry width="50" height="50" relative="1" as="geometry">
            <mxPoint x="139.99999999999955" y="720" as="sourcePoint" />
            <mxPoint x="206" y="720" as="targetPoint" />
          </mxGeometry>
        </mxCell>
        <mxCell id="ythB0XY5r4S939yMG-qN-221" value="(Entity table)" style="text;html=1;strokeColor=none;fillColor=none;align=center;verticalAlign=middle;whiteSpace=wrap;rounded=0;" vertex="1" parent="1">
          <mxGeometry x="179" y="18" width="40" height="20" as="geometry" />
        </mxCell>
        <mxCell id="ythB0XY5r4S939yMG-qN-222" value="(Entity table)" style="text;html=1;strokeColor=none;fillColor=none;align=center;verticalAlign=middle;whiteSpace=wrap;rounded=0;" vertex="1" parent="1">
          <mxGeometry x="150" y="176" width="40" height="20" as="geometry" />
        </mxCell>
        <mxCell id="ythB0XY5r4S939yMG-qN-223" value="(Entity table)" style="text;html=1;strokeColor=none;fillColor=none;align=center;verticalAlign=middle;whiteSpace=wrap;rounded=0;" vertex="1" parent="1">
          <mxGeometry x="994" y="176" width="40" height="20" as="geometry" />
        </mxCell>
        <mxCell id="ythB0XY5r4S939yMG-qN-224" value="(Entity table)" style="text;html=1;strokeColor=none;fillColor=none;align=center;verticalAlign=middle;whiteSpace=wrap;rounded=0;" vertex="1" parent="1">
          <mxGeometry x="866" y="353" width="40" height="20" as="geometry" />
        </mxCell>
        <mxCell id="ythB0XY5r4S939yMG-qN-227" value="(Entity table)" style="text;html=1;strokeColor=none;fillColor=none;align=center;verticalAlign=middle;whiteSpace=wrap;rounded=0;" vertex="1" parent="1">
          <mxGeometry x="63" y="649" width="40" height="20" as="geometry" />
        </mxCell>
        <mxCell id="ythB0XY5r4S939yMG-qN-228" value="(Entity table)" style="text;html=1;strokeColor=none;fillColor=none;align=center;verticalAlign=middle;whiteSpace=wrap;rounded=0;" vertex="1" parent="1">
          <mxGeometry x="173" y="809" width="40" height="20" as="geometry" />
        </mxCell>
        <mxCell id="ythB0XY5r4S939yMG-qN-229" value="(Entity table)" style="text;html=1;strokeColor=none;fillColor=none;align=center;verticalAlign=middle;whiteSpace=wrap;rounded=0;" vertex="1" parent="1">
          <mxGeometry x="595" y="852" width="40" height="20" as="geometry" />
        </mxCell>
        <mxCell id="ythB0XY5r4S939yMG-qN-230" value="(Entity table)" style="text;html=1;strokeColor=none;fillColor=none;align=center;verticalAlign=middle;whiteSpace=wrap;rounded=0;" vertex="1" parent="1">
          <mxGeometry x="433" y="1090" width="40" height="20" as="geometry" />
        </mxCell>
        <mxCell id="ythB0XY5r4S939yMG-qN-231" value="(Entity table)" style="text;html=1;strokeColor=none;fillColor=none;align=center;verticalAlign=middle;whiteSpace=wrap;rounded=0;" vertex="1" parent="1">
          <mxGeometry x="1015" y="1250" width="40" height="20" as="geometry" />
        </mxCell>
        <mxCell id="ythB0XY5r4S939yMG-qN-232" value="(Entity table)" style="text;html=1;strokeColor=none;fillColor=none;align=center;verticalAlign=middle;whiteSpace=wrap;rounded=0;" vertex="1" parent="1">
          <mxGeometry x="473" y="1250" width="40" height="20" as="geometry" />
        </mxCell>
        <mxCell id="ythB0XY5r4S939yMG-qN-234" value="" style="endArrow=none;html=1;" edge="1" parent="1">
          <mxGeometry width="50" height="50" relative="1" as="geometry">
            <mxPoint x="145" y="556.1700000000001" as="sourcePoint" />
            <mxPoint x="211" y="556.1700000000001" as="targetPoint" />
          </mxGeometry>
        </mxCell>
        <mxCell id="ythB0XY5r4S939yMG-qN-235" value="" style="endArrow=none;html=1;" edge="1" parent="1">
          <mxGeometry width="50" height="50" relative="1" as="geometry">
            <mxPoint x="267" y="557" as="sourcePoint" />
            <mxPoint x="332.9999999999998" y="557" as="targetPoint" />
          </mxGeometry>
        </mxCell>
        <mxCell id="ythB0XY5r4S939yMG-qN-236" value="" style="endArrow=none;html=1;" edge="1" parent="1">
          <mxGeometry width="50" height="50" relative="1" as="geometry">
            <mxPoint x="466.99999999999955" y="1000" as="sourcePoint" />
            <mxPoint x="533" y="1000" as="targetPoint" />
          </mxGeometry>
        </mxCell>
        <mxCell id="ythB0XY5r4S939yMG-qN-237" value="" style="endArrow=none;html=1;" edge="1" parent="1">
          <mxGeometry width="50" height="50" relative="1" as="geometry">
            <mxPoint x="581.9999999999995" y="1000" as="sourcePoint" />
            <mxPoint x="648" y="1000" as="targetPoint" />
          </mxGeometry>
        </mxCell>
        <mxCell id="ythB0XY5r4S939yMG-qN-238" value="" style="endArrow=none;html=1;" edge="1" parent="1">
          <mxGeometry width="50" height="50" relative="1" as="geometry">
            <mxPoint x="373.99999999999955" y="1160" as="sourcePoint" />
            <mxPoint x="440" y="1160" as="targetPoint" />
          </mxGeometry>
        </mxCell>
        <mxCell id="ythB0XY5r4S939yMG-qN-239" value="" style="endArrow=none;html=1;" edge="1" parent="1">
          <mxGeometry width="50" height="50" relative="1" as="geometry">
            <mxPoint x="656.9999999999995" y="882" as="sourcePoint" />
            <mxPoint x="723" y="882" as="targetPoint" />
          </mxGeometry>
        </mxCell>
        <mxCell id="ythB0XY5r4S939yMG-qN-240" value="" style="endArrow=none;html=1;" edge="1" parent="1">
          <mxGeometry width="50" height="50" relative="1" as="geometry">
            <mxPoint x="986.9999999999995" y="1160" as="sourcePoint" />
            <mxPoint x="1053" y="1160" as="targetPoint" />
          </mxGeometry>
        </mxCell>
        <mxCell id="ythB0XY5r4S939yMG-qN-241" value="" style="endArrow=none;html=1;" edge="1" parent="1">
          <mxGeometry width="50" height="50" relative="1" as="geometry">
            <mxPoint x="1103.9999999999995" y="1158.57" as="sourcePoint" />
            <mxPoint x="1170" y="1158.57" as="targetPoint" />
          </mxGeometry>
        </mxCell>
      </root>
    </mxGraphModel>
  </diagram>
</mxfile>
